<svg width="400" height="299" viewBox="0 0 400 299" fill="none" xmlns="http://www.w3.org/2000/svg">
<path d="M90.608 39.2C103.76 25.976 120.208 16.048 138.424 12.488C162.168 7.83998 188.752 15.288 204.168 33.944C224.168 58.16 221.688 93.144 229.504 123.544C231.352 130.744 233.952 138.016 238.968 143.544C247.296 152.68 260.568 155.264 272.944 155.64C288.448 156.104 307.344 154.04 320.72 163.592C346.376 181.992 329.824 218.704 314.072 237.832C291.672 264.992 253.088 275.496 221.792 257.2C211.896 251.416 203.328 243.088 192.44 239.52C177.896 234.76 162.12 239.328 146.84 239.016C116.624 238.4 89.392 217.992 73.6 192.24C47.688 149.944 50.152 92 79.568 52.08C82.9304 47.5243 86.6201 43.2196 90.608 39.2Z" fill="#407BFF"/>
<path opacity="0.9" d="M90.608 39.2C103.76 25.976 120.208 16.048 138.424 12.488C162.168 7.83998 188.752 15.288 204.168 33.944C224.168 58.16 221.688 93.144 229.504 123.544C231.352 130.744 233.952 138.016 238.968 143.544C247.296 152.68 260.568 155.264 272.944 155.64C288.448 156.104 307.344 154.04 320.72 163.592C346.376 181.992 329.824 218.704 314.072 237.832C291.672 264.992 253.088 275.496 221.792 257.2C211.896 251.416 203.328 243.088 192.44 239.52C177.896 234.76 162.12 239.328 146.84 239.016C116.624 238.4 89.392 217.992 73.6 192.24C47.688 149.944 50.152 92 79.568 52.08C82.9304 47.5243 86.6201 43.2196 90.608 39.2Z" fill="white"/>
<path d="M200 298.048C285.666 298.048 355.112 293.994 355.112 288.992C355.112 283.991 285.666 279.936 200 279.936C114.334 279.936 44.8879 283.991 44.8879 288.992C44.8879 293.994 114.334 298.048 200 298.048Z" fill="#F5F5F5"/>
<path d="M72.5602 231.28C72.7282 232.456 69.5362 233.232 66.9602 233.68C67.1762 235.816 68.5602 237.976 70.5522 239.992C73.0242 238.6 76.5442 236.792 77.2002 237.216C77.8562 237.64 74.2722 240 72.0002 241.392C73.6145 242.797 75.3224 244.091 77.1122 245.264C78.2162 244.232 79.5122 243.32 80.3122 243.816C81.1122 244.312 80.8962 245.92 80.4962 247.352C83.1842 248.912 85.1922 249.864 85.1922 249.864C85.9739 247.369 86.5754 244.821 86.9922 242.24C86.8562 241.976 86.7202 241.704 86.5922 241.44C86.1602 240.44 86.5922 240.016 87.2962 239.88C87.4998 238.055 87.5159 236.213 87.3442 234.384C84.3042 233.744 80.6082 232.568 81.9922 230.744C82.7922 229.648 84.3922 229.52 85.9442 229.792C85.7283 229.429 85.4763 229.089 85.1922 228.776C79.6642 222.68 75.8082 228.776 75.8082 228.776C72.6082 226.096 68.0722 226.816 67.0962 231.008C68.8962 230.52 72.3522 229.832 72.5602 231.28Z" fill="#407BFF"/>
<path opacity="0.3" d="M72.5602 231.28C72.7282 232.456 69.5362 233.232 66.9602 233.68C67.1762 235.816 68.5602 237.976 70.5522 239.992C73.0242 238.6 76.5442 236.792 77.2002 237.216C77.8562 237.64 74.2722 240 72.0002 241.392C73.6145 242.797 75.3224 244.091 77.1122 245.264C78.2162 244.232 79.5122 243.32 80.3122 243.816C81.1122 244.312 80.8962 245.92 80.4962 247.352C83.1842 248.912 85.1922 249.864 85.1922 249.864C85.9739 247.369 86.5754 244.821 86.9922 242.24C86.8562 241.976 86.7202 241.704 86.5922 241.44C86.1602 240.44 86.5922 240.016 87.2962 239.88C87.4998 238.055 87.5159 236.213 87.3442 234.384C84.3042 233.744 80.6082 232.568 81.9922 230.744C82.7922 229.648 84.3922 229.52 85.9442 229.792C85.7283 229.429 85.4763 229.089 85.1922 228.776C79.6642 222.68 75.8082 228.776 75.8082 228.776C72.6082 226.096 68.0722 226.816 67.0962 231.008C68.8962 230.52 72.3522 229.832 72.5602 231.28Z" fill="white"/>
<path d="M79.4641 276.072L78.6641 276.008C78.6641 275.592 81.9361 234.784 72.7761 230.936C72.3391 230.734 71.8612 230.635 71.3797 230.647C70.8982 230.66 70.4261 230.783 70.0001 231.008C66.6961 232.728 65.1121 239.872 65.0961 239.944L64.2961 239.776C64.3601 239.472 65.9761 232.192 69.6161 230.296C70.1463 230.017 70.7337 229.862 71.333 229.846C71.9322 229.829 72.5272 229.95 73.0721 230.2C82.7761 234.272 79.6001 274.4 79.4641 276.072Z" fill="#407BFF"/>
<path d="M80.6161 275.2C80.4561 273.368 76.7121 230.192 83.7041 225.6C85.3841 224.496 86.9041 224.264 88.1441 224.904C91.4481 226.576 91.8801 233.632 91.8961 233.936L91.0961 233.984C91.0961 233.912 90.6721 227.08 87.7841 225.624C86.7841 225.12 85.5601 225.336 84.1441 226.264C77.5521 230.592 81.3761 274.68 81.4081 275.128L80.6161 275.2Z" fill="#407BFF"/>
<path d="M81.6641 278.68C81.6161 277.272 80.4641 244.224 86.8241 241.328C87.4179 241.051 88.065 240.908 88.7201 240.908C89.3752 240.908 90.0223 241.051 90.6161 241.328C94.9841 243.248 97.6801 251.392 97.8161 251.728L97.0561 251.976C97.0561 251.896 94.3521 243.832 90.3121 242.056C89.8237 241.823 89.2893 241.702 88.7481 241.702C88.2069 241.702 87.6726 241.823 87.1841 242.056C82.3041 244.272 82.1361 269.256 82.4881 278.648L81.6641 278.68Z" fill="#407BFF"/>
<path d="M80.0482 277.168L79.2482 277.08C80.3762 267.24 82.5202 241.024 79.0162 237.88C78.8465 237.675 78.6208 237.523 78.3666 237.444C78.1124 237.364 77.8406 237.36 77.5842 237.432C75.2002 238.4 73.8002 246.88 73.4482 250.096L72.6482 250.008C72.7842 248.776 74.0642 237.944 77.2882 236.712C77.6795 236.578 78.1018 236.562 78.5018 236.668C78.9018 236.773 79.2617 236.994 79.5362 237.304C84.0722 241.344 80.2162 275.704 80.0482 277.168Z" fill="#407BFF"/>
<path d="M66.696 258.52H95.44L93.04 290.712H69.096L66.696 258.52Z" fill="#263238"/>
<path opacity="0.2" d="M75.4241 258.52L76.2241 290.712H93.0401L95.4401 258.52H75.4241Z" fill="white"/>
<path d="M70.6082 246.704C70.3122 247.504 68.0802 246.872 66.3282 246.248C65.7282 247.64 65.8642 249.448 66.3842 251.368C68.3762 251.368 71.1842 251.432 71.4322 251.936C71.6802 252.44 68.6722 252.68 66.8082 252.736C67.3219 254.158 67.9341 255.543 68.6402 256.88C69.6722 256.616 70.7842 256.504 71.0882 257.072C71.3922 257.64 70.7282 258.568 69.9922 259.312C71.1122 261.2 72.0242 262.512 72.0242 262.512C73.3639 261.235 74.6073 259.86 75.7442 258.4C75.7442 258.192 75.7442 257.976 75.7442 257.76C75.8242 256.96 76.2322 256.872 76.7202 257.032C77.4699 255.974 78.1105 254.843 78.6322 253.656C76.9762 252.224 75.0962 250.232 76.5762 249.576C77.4722 249.192 78.4562 249.632 79.3362 250.376C79.3314 250.077 79.2939 249.779 79.2242 249.488C77.9042 243.832 73.4402 246.288 73.4402 246.288C72.3762 243.536 69.3362 242.44 67.3042 244.688C68.6162 244.976 70.9842 245.736 70.6082 246.704Z" fill="#407BFF"/>
<path opacity="0.3" d="M70.6082 246.704C70.3122 247.504 68.0802 246.872 66.3282 246.248C65.7282 247.64 65.8642 249.448 66.3842 251.368C68.3762 251.368 71.1842 251.432 71.4322 251.936C71.6802 252.44 68.6722 252.68 66.8082 252.736C67.3219 254.158 67.9341 255.543 68.6402 256.88C69.6722 256.616 70.7842 256.504 71.0882 257.072C71.3922 257.64 70.7282 258.568 69.9922 259.312C71.1122 261.2 72.0242 262.512 72.0242 262.512C73.3639 261.235 74.6073 259.86 75.7442 258.4C75.7442 258.192 75.7442 257.976 75.7442 257.76C75.8242 256.96 76.2322 256.872 76.7202 257.032C77.4699 255.974 78.1105 254.843 78.6322 253.656C76.9762 252.224 75.0962 250.232 76.5762 249.576C77.4722 249.192 78.4562 249.632 79.3362 250.376C79.3314 250.077 79.2939 249.779 79.2242 249.488C77.9042 243.832 73.4402 246.288 73.4402 246.288C72.3762 243.536 69.3362 242.44 67.3042 244.688C68.6162 244.976 70.9842 245.736 70.6082 246.704Z" fill="white"/>
<path d="M91.9521 250.528C91.0578 250.602 90.1764 250.788 89.3281 251.08C89.0968 250.47 88.9644 249.828 88.9361 249.176C88.7521 243.384 92.9361 245.824 95.0961 244.12C95.5955 243.685 96.1796 243.358 96.8115 243.16C97.4435 242.962 98.1096 242.896 98.7681 242.968C98.5789 243.289 98.4131 243.623 98.272 243.968C98.2194 244.094 98.1962 244.23 98.2043 244.367C98.2124 244.503 98.2515 244.636 98.3186 244.754C98.3858 244.873 98.4792 244.975 98.5917 245.053C98.7043 245.13 98.833 245.18 98.9681 245.2C99.5083 245.307 100.068 245.239 100.568 245.008C100.716 244.927 100.856 244.831 100.984 244.72C101.334 245.328 101.603 245.979 101.784 246.656C102.001 247.466 102.127 248.298 102.16 249.136C101.828 249.206 101.502 249.3 101.184 249.416C101.058 249.471 100.947 249.553 100.858 249.657C100.768 249.761 100.704 249.884 100.669 250.017C100.635 250.149 100.631 250.288 100.657 250.422C100.684 250.557 100.741 250.683 100.824 250.792C101.173 251.139 101.579 251.423 102.024 251.632C101.873 252.559 101.627 253.468 101.288 254.344L100.992 254.392C100.784 254.432 100.576 254.488 100.368 254.544L100.024 254.672C99.8817 254.735 99.7572 254.832 99.6622 254.955C99.5671 255.078 99.5045 255.223 99.4801 255.376C99.4669 255.528 99.4914 255.68 99.5514 255.819C99.6114 255.959 99.7051 256.082 99.8241 256.176C99.9603 256.276 100.105 256.365 100.256 256.44C99.703 257.396 98.912 258.192 97.96 258.752C97.1193 258.372 96.3019 257.941 95.5121 257.464C95.6881 257.232 95.8641 257 96.0241 256.76C96.2124 256.495 96.3004 256.172 96.272 255.848C96.2204 255.532 96.052 255.246 95.8001 255.048C95.6718 254.949 95.5253 254.876 95.3688 254.833C95.2123 254.791 95.0489 254.779 94.8881 254.8C94.5717 254.852 94.2862 255.02 94.0881 255.272C93.8961 255.56 93.68 255.832 93.472 256.072C92.3649 255.256 91.3744 254.292 90.5281 253.208H90.616C91.1405 253.072 91.6759 252.981 92.216 252.936C92.4883 252.847 92.7207 252.665 92.8734 252.422C93.0261 252.18 93.0894 251.891 93.0524 251.607C93.0155 251.323 92.8806 251.06 92.671 250.865C92.4614 250.67 92.1902 250.553 91.904 250.536L91.9521 250.528Z" fill="#407BFF"/>
<path opacity="0.5" d="M91.9521 250.528C91.0578 250.602 90.1764 250.788 89.3281 251.08C89.0968 250.47 88.9644 249.828 88.9361 249.176C88.7521 243.384 92.9361 245.824 95.0961 244.12C95.5955 243.685 96.1796 243.358 96.8115 243.16C97.4435 242.962 98.1096 242.896 98.7681 242.968C98.5789 243.289 98.4131 243.623 98.272 243.968C98.2194 244.094 98.1962 244.23 98.2043 244.367C98.2124 244.503 98.2515 244.636 98.3186 244.754C98.3858 244.873 98.4792 244.975 98.5917 245.053C98.7043 245.13 98.833 245.18 98.9681 245.2C99.5083 245.307 100.068 245.239 100.568 245.008C100.716 244.927 100.856 244.831 100.984 244.72C101.334 245.328 101.603 245.979 101.784 246.656C102.001 247.466 102.127 248.298 102.16 249.136C101.828 249.206 101.502 249.3 101.184 249.416C101.058 249.471 100.947 249.553 100.858 249.657C100.768 249.761 100.704 249.884 100.669 250.017C100.635 250.149 100.631 250.288 100.657 250.422C100.684 250.557 100.741 250.683 100.824 250.792C101.173 251.139 101.579 251.423 102.024 251.632C101.873 252.559 101.627 253.468 101.288 254.344L100.992 254.392C100.784 254.432 100.576 254.488 100.368 254.544L100.024 254.672C99.8817 254.735 99.7572 254.832 99.6622 254.955C99.5671 255.078 99.5045 255.223 99.4801 255.376C99.4669 255.528 99.4914 255.68 99.5514 255.819C99.6114 255.959 99.7051 256.082 99.8241 256.176C99.9603 256.276 100.105 256.365 100.256 256.44C99.703 257.396 98.912 258.192 97.96 258.752C97.1193 258.372 96.3019 257.941 95.5121 257.464C95.6881 257.232 95.8641 257 96.0241 256.76C96.2124 256.495 96.3004 256.172 96.272 255.848C96.2204 255.532 96.052 255.246 95.8001 255.048C95.6718 254.949 95.5253 254.876 95.3688 254.833C95.2123 254.791 95.0489 254.779 94.8881 254.8C94.5717 254.852 94.2862 255.02 94.0881 255.272C93.8961 255.56 93.68 255.832 93.472 256.072C92.3649 255.256 91.3744 254.292 90.5281 253.208H90.616C91.1405 253.072 91.6759 252.981 92.216 252.936C92.4883 252.847 92.7207 252.665 92.8734 252.422C93.0261 252.18 93.0894 251.891 93.0524 251.607C93.0155 251.323 92.8806 251.06 92.671 250.865C92.4614 250.67 92.1902 250.553 91.904 250.536L91.9521 250.528Z" fill="white"/>
<path d="M93.6001 230.544C94.0948 230.19 94.6324 229.899 95.2001 229.68C95.0538 229.259 94.8403 228.865 94.5681 228.512C92.1201 225.384 91.0161 228.512 89.1121 228.56C88.6649 228.553 88.2211 228.639 87.8083 228.811C87.3954 228.983 87.0223 229.238 86.7121 229.56C86.9496 229.648 87.182 229.75 87.4081 229.864C87.492 229.907 87.5648 229.969 87.621 230.045C87.6772 230.12 87.7153 230.208 87.7323 230.301C87.7493 230.393 87.7448 230.489 87.7191 230.58C87.6934 230.67 87.6472 230.754 87.5841 230.824C87.3468 231.125 87.0184 231.341 86.6481 231.44C86.5309 231.448 86.4133 231.448 86.2961 231.44C86.3851 231.912 86.5302 232.371 86.7281 232.808C86.9709 233.328 87.2714 233.819 87.6241 234.272C87.8281 234.164 88.0393 234.071 88.2561 233.992C88.3462 233.964 88.4415 233.956 88.5347 233.971C88.628 233.985 88.7167 234.021 88.794 234.075C88.8713 234.129 88.9352 234.2 88.9806 234.283C89.0261 234.366 89.0519 234.458 89.0561 234.552C89.0271 234.888 88.9377 235.216 88.7921 235.52C89.2855 235.945 89.8217 236.318 90.3921 236.632L90.5681 236.52L90.9681 236.328C91.0451 236.293 91.1256 236.266 91.2081 236.248C91.3095 236.217 91.4172 236.212 91.521 236.234C91.6247 236.257 91.7208 236.305 91.8001 236.376C91.8797 236.45 91.9386 236.544 91.9709 236.648C92.0031 236.751 92.0077 236.862 91.9841 236.968C91.9568 237.079 91.922 237.189 91.8801 237.296C92.5884 237.556 93.3519 237.628 94.0961 237.504C94.3733 236.936 94.6138 236.351 94.8161 235.752L94.2401 235.608C94.0268 235.55 93.8401 235.42 93.7121 235.24C93.5921 235.05 93.5519 234.82 93.6001 234.6C93.6216 234.491 93.6654 234.388 93.7287 234.297C93.7921 234.206 93.8736 234.13 93.9681 234.072C94.1585 233.952 94.3884 233.912 94.6081 233.96C94.8321 234.024 95.0641 234.072 95.2881 234.128C95.5154 233.215 95.6151 232.276 95.5841 231.336H95.5281C95.1862 231.495 94.8596 231.685 94.5521 231.904C94.4592 231.964 94.3553 232.005 94.2465 232.025C94.1377 232.044 94.026 232.042 93.918 232.019C93.8099 231.996 93.7074 231.951 93.6165 231.888C93.5256 231.825 93.448 231.745 93.3881 231.652C93.3283 231.559 93.2873 231.455 93.2675 231.346C93.2478 231.237 93.2497 231.126 93.2731 231.018C93.2965 230.91 93.3409 230.807 93.4039 230.716C93.4669 230.625 93.5472 230.548 93.6401 230.488L93.6001 230.544Z" fill="#407BFF"/>
<path opacity="0.3" d="M93.6001 230.544C94.0948 230.19 94.6324 229.899 95.2001 229.68C95.0538 229.259 94.8403 228.865 94.5681 228.512C92.1201 225.384 91.0161 228.512 89.1121 228.56C88.6649 228.553 88.2211 228.639 87.8083 228.811C87.3954 228.983 87.0223 229.238 86.7121 229.56C86.9496 229.648 87.182 229.75 87.4081 229.864C87.492 229.907 87.5648 229.969 87.621 230.045C87.6772 230.12 87.7153 230.208 87.7323 230.301C87.7493 230.393 87.7448 230.489 87.7191 230.58C87.6934 230.67 87.6472 230.754 87.5841 230.824C87.3468 231.125 87.0184 231.341 86.6481 231.44C86.5309 231.448 86.4133 231.448 86.2961 231.44C86.3851 231.912 86.5302 232.371 86.7281 232.808C86.9709 233.328 87.2714 233.819 87.6241 234.272C87.8281 234.164 88.0393 234.071 88.2561 233.992C88.3462 233.964 88.4415 233.956 88.5347 233.971C88.628 233.985 88.7167 234.021 88.794 234.075C88.8713 234.129 88.9352 234.2 88.9806 234.283C89.0261 234.366 89.0519 234.458 89.0561 234.552C89.0271 234.888 88.9377 235.216 88.7921 235.52C89.2855 235.945 89.8217 236.318 90.3921 236.632L90.5681 236.52L90.9681 236.328C91.0451 236.293 91.1256 236.266 91.2081 236.248C91.3095 236.217 91.4172 236.212 91.521 236.234C91.6247 236.257 91.7208 236.305 91.8001 236.376C91.8797 236.45 91.9386 236.544 91.9709 236.648C92.0031 236.751 92.0077 236.862 91.9841 236.968C91.9568 237.079 91.922 237.189 91.8801 237.296C92.5884 237.556 93.3519 237.628 94.0961 237.504C94.3733 236.936 94.6138 236.351 94.8161 235.752L94.2401 235.608C94.0268 235.55 93.8401 235.42 93.7121 235.24C93.5921 235.05 93.5519 234.82 93.6001 234.6C93.6216 234.491 93.6654 234.388 93.7287 234.297C93.7921 234.206 93.8736 234.13 93.9681 234.072C94.1585 233.952 94.3884 233.912 94.6081 233.96C94.8321 234.024 95.0641 234.072 95.2881 234.128C95.5154 233.215 95.6151 232.276 95.5841 231.336H95.5281C95.1862 231.495 94.8596 231.685 94.5521 231.904C94.4592 231.964 94.3553 232.005 94.2465 232.025C94.1377 232.044 94.026 232.042 93.918 232.019C93.8099 231.996 93.7074 231.951 93.6165 231.888C93.5256 231.825 93.448 231.745 93.3881 231.652C93.3283 231.559 93.2873 231.455 93.2675 231.346C93.2478 231.237 93.2497 231.126 93.2731 231.018C93.2965 230.91 93.3409 230.807 93.4039 230.716C93.4669 230.625 93.5472 230.548 93.6401 230.488L93.6001 230.544Z" fill="white"/>
<path d="M70.1921 236.344C70.0241 237.52 73.2161 238.296 75.7921 238.744C75.5761 240.88 74.1921 243.04 72.1921 245.048C69.7281 243.664 66.2001 241.848 65.5521 242.272C64.9041 242.696 68.4561 245.096 70.7121 246.464C69.0994 247.866 67.3913 249.155 65.6001 250.32C64.4961 249.288 63.2001 248.384 62.4001 248.872C61.6001 249.36 61.8161 250.984 62.2161 252.408C59.5281 254.008 57.5201 254.928 57.5201 254.928C56.7384 252.433 56.1369 249.885 55.7201 247.304C55.8561 247.032 55.9921 246.768 56.1121 246.504C56.5521 245.504 56.1121 245.08 55.4161 244.904C55.2084 243.079 55.1924 241.237 55.3681 239.408C58.4081 238.776 62.1041 237.592 60.7201 235.768C59.9201 234.672 58.3601 234.544 56.7681 234.824C56.9842 234.459 57.2361 234.116 57.5201 233.8C63.0481 227.704 66.9041 233.8 66.9041 233.8C70.1041 231.12 74.6321 231.848 75.6081 236.032C73.8561 235.576 70.4001 234.888 70.1921 236.344Z" fill="#407BFF"/>
<path opacity="0.5" d="M70.1921 236.344C70.0241 237.52 73.2161 238.296 75.7921 238.744C75.5761 240.88 74.1921 243.04 72.1921 245.048C69.7281 243.664 66.2001 241.848 65.5521 242.272C64.9041 242.696 68.4561 245.096 70.7121 246.464C69.0994 247.866 67.3913 249.155 65.6001 250.32C64.4961 249.288 63.2001 248.384 62.4001 248.872C61.6001 249.36 61.8161 250.984 62.2161 252.408C59.5281 254.008 57.5201 254.928 57.5201 254.928C56.7384 252.433 56.1369 249.885 55.7201 247.304C55.8561 247.032 55.9921 246.768 56.1121 246.504C56.5521 245.504 56.1121 245.08 55.4161 244.904C55.2084 243.079 55.1924 241.237 55.3681 239.408C58.4081 238.776 62.1041 237.592 60.7201 235.768C59.9201 234.672 58.3601 234.544 56.7681 234.824C56.9842 234.459 57.2361 234.116 57.5201 233.8C63.0481 227.704 66.9041 233.8 66.9041 233.8C70.1041 231.12 74.6321 231.848 75.6081 236.032C73.8561 235.576 70.4001 234.888 70.1921 236.344Z" fill="white"/>
<path d="M308.36 290.712L323.68 188.912V290.712H327.792V188.28L343.128 290.712H347.536L328.336 162.488L327.792 162.568V158.4H323.68V162.552L323.112 162.488L303.864 290.712H308.36Z" fill="#407BFF"/>
<path opacity="0.3" d="M308.36 290.712L323.68 188.912V290.712H327.792V188.28L343.128 290.712H347.536L328.336 162.488L327.792 162.568V158.4H323.68V162.552L323.112 162.488L303.864 290.712H308.36Z" fill="white"/>
<path d="M346.816 176.712H304.432L307.864 141.296H343.384L346.816 176.712Z" fill="#407BFF"/>
<g opacity="0.5">
<path opacity="0.5" d="M346.816 176.712H304.432L307.864 141.296H343.384L346.816 176.712Z" fill="white"/>
</g>
<path d="M240 130.728H226.064C225.767 130.728 225.482 130.61 225.272 130.4C225.062 130.19 224.944 129.905 224.944 129.608V96.6079C225.097 96.5352 225.228 96.4224 225.322 96.2815C225.416 96.1405 225.47 95.9766 225.478 95.8074C225.486 95.6381 225.448 95.4698 225.368 95.3205C225.288 95.1711 225.169 95.0462 225.024 94.9591C224.878 94.8721 224.712 94.8261 224.543 94.8262C224.373 94.8262 224.207 94.8722 224.062 94.9594C223.916 95.0465 223.797 95.1714 223.717 95.3209C223.638 95.4703 223.6 95.6386 223.608 95.8079C223.616 95.9775 223.67 96.1418 223.764 96.2828C223.859 96.4239 223.99 96.5363 224.144 96.6079V129.6C224.143 129.852 224.192 130.102 224.288 130.336C224.384 130.569 224.526 130.781 224.704 130.96C224.883 131.138 225.095 131.28 225.328 131.376C225.561 131.472 225.812 131.521 226.064 131.52H240C240.297 131.52 240.582 131.638 240.792 131.848C241.002 132.058 241.12 132.343 241.12 132.64V151.528H241.92V132.648C241.92 132.396 241.87 132.146 241.774 131.913C241.677 131.68 241.536 131.469 241.358 131.29C241.179 131.112 240.968 130.971 240.735 130.874C240.502 130.778 240.252 130.728 240 130.728Z" fill="#407BFF"/>
<path opacity="0.4" d="M240 130.728H226.064C225.767 130.728 225.482 130.61 225.272 130.4C225.062 130.19 224.944 129.905 224.944 129.608V96.6079C225.097 96.5352 225.228 96.4224 225.322 96.2815C225.416 96.1405 225.47 95.9766 225.478 95.8074C225.486 95.6381 225.448 95.4698 225.368 95.3205C225.288 95.1711 225.169 95.0462 225.024 94.9591C224.878 94.8721 224.712 94.8261 224.543 94.8262C224.373 94.8262 224.207 94.8722 224.062 94.9594C223.916 95.0465 223.797 95.1714 223.717 95.3209C223.638 95.4703 223.6 95.6386 223.608 95.8079C223.616 95.9775 223.67 96.1418 223.764 96.2828C223.859 96.4239 223.99 96.5363 224.144 96.6079V129.6C224.143 129.852 224.192 130.102 224.288 130.336C224.384 130.569 224.526 130.781 224.704 130.96C224.883 131.138 225.095 131.28 225.328 131.376C225.561 131.472 225.812 131.521 226.064 131.52H240C240.297 131.52 240.582 131.638 240.792 131.848C241.002 132.058 241.12 132.343 241.12 132.64V151.528H241.92V132.648C241.92 132.396 241.87 132.146 241.774 131.913C241.677 131.68 241.536 131.469 241.358 131.29C241.179 131.112 240.968 130.971 240.735 130.874C240.502 130.778 240.252 130.728 240 130.728Z" fill="white"/>
<path d="M256.672 150.736H226.296C225.108 150.736 224.144 151.699 224.144 152.888V184.96C224.144 186.148 225.108 187.112 226.296 187.112H256.672C257.861 187.112 258.824 186.148 258.824 184.96V152.888C258.824 151.699 257.861 150.736 256.672 150.736Z" fill="#407BFF"/>
<path opacity="0.4" d="M256.672 150.736H226.296C225.108 150.736 224.144 151.699 224.144 152.888V184.96C224.144 186.148 225.108 187.112 226.296 187.112H256.672C257.861 187.112 258.824 186.148 258.824 184.96V152.888C258.824 151.699 257.861 150.736 256.672 150.736Z" fill="white"/>
<path opacity="0.2" d="M243.816 171.656H239.152V176.32H243.816V171.656Z" fill="white"/>
<path opacity="0.2" d="M248.88 156.464H244.216V161.128H248.88V156.464Z" fill="white"/>
<path opacity="0.2" d="M238.752 176.72H234.088V181.384H238.752V176.72Z" fill="white"/>
<path opacity="0.2" d="M248.88 161.528H244.216V166.192H248.88V161.528Z" fill="white"/>
<path opacity="0.2" d="M248.88 166.592H244.216V171.256H248.88V166.592Z" fill="white"/>
<path opacity="0.2" d="M243.816 161.528H239.152V166.192H243.816V161.528Z" fill="white"/>
<path opacity="0.2" d="M243.816 151.136H239.152V156.064H243.816V151.136Z" fill="white"/>
<path opacity="0.2" d="M238.752 171.656H234.088V176.32H238.752V171.656Z" fill="white"/>
<path opacity="0.2" d="M243.816 156.464H239.152V161.128H243.816V156.464Z" fill="white"/>
<path opacity="0.2" d="M243.816 176.72H239.152V181.384H243.816V176.72Z" fill="white"/>
<path opacity="0.2" d="M248.88 176.72H244.216V181.384H248.88V176.72Z" fill="white"/>
<path opacity="0.2" d="M243.816 166.592H239.152V171.256H243.816V166.592Z" fill="white"/>
<path opacity="0.2" d="M248.88 151.136H244.216V156.064H248.88V151.136Z" fill="white"/>
<path opacity="0.2" d="M228.624 171.656H224.544V176.32H228.624V171.656Z" fill="white"/>
<path opacity="0.2" d="M228.624 156.464H224.544V161.128H228.624V156.464Z" fill="white"/>
<path opacity="0.2" d="M228.624 166.592H224.544V171.256H228.624V166.592Z" fill="white"/>
<path opacity="0.2" d="M228.624 161.528H224.544V166.192H228.624V161.528Z" fill="white"/>
<path opacity="0.2" d="M248.88 171.656H244.216V176.32H248.88V171.656Z" fill="white"/>
<path opacity="0.2" d="M254.344 156.064H258.4V152.864C258.4 152.399 258.215 151.954 257.887 151.625C257.558 151.296 257.113 151.112 256.648 151.112H254.32L254.344 156.064Z" fill="white"/>
<path opacity="0.2" d="M253.944 156.464H249.28V161.128H253.944V156.464Z" fill="white"/>
<path opacity="0.2" d="M228.624 176.72H224.544V181.384H228.624V176.72Z" fill="white"/>
<path opacity="0.2" d="M253.944 161.528H249.28V166.192H253.944V161.528Z" fill="white"/>
<path opacity="0.2" d="M253.944 166.592H249.28V171.256H253.944V166.592Z" fill="white"/>
<path opacity="0.2" d="M253.944 171.656H249.28V176.32H253.944V171.656Z" fill="white"/>
<path opacity="0.2" d="M253.944 176.72H249.28V181.384H253.944V176.72Z" fill="white"/>
<path opacity="0.2" d="M258.424 176.72H254.344V181.384H258.424V176.72Z" fill="white"/>
<path opacity="0.2" d="M253.944 151.136H249.28V156.064H253.944V151.136Z" fill="white"/>
<path opacity="0.2" d="M243.816 181.792H239.152V186.72H243.816V181.792Z" fill="white"/>
<path opacity="0.2" d="M248.88 181.792H244.216V186.72H248.88V181.792Z" fill="white"/>
<path opacity="0.2" d="M258.424 166.592H254.344V171.256H258.424V166.592Z" fill="white"/>
<path opacity="0.2" d="M253.944 181.792H249.28V186.72H253.944V181.792Z" fill="white"/>
<path opacity="0.2" d="M258.424 171.656H254.344V176.32H258.424V171.656Z" fill="white"/>
<path opacity="0.2" d="M228.616 181.792H224.544V184.992C224.546 185.455 224.732 185.899 225.06 186.226C225.388 186.553 225.833 186.736 226.296 186.736H228.616V181.792Z" fill="white"/>
<path opacity="0.2" d="M254.344 181.792V186.712H256.672C257.135 186.712 257.58 186.529 257.908 186.202C258.236 185.875 258.422 185.431 258.424 184.968V181.768L254.344 181.792Z" fill="white"/>
<path opacity="0.2" d="M228.616 156.064V151.136H226.296C225.831 151.136 225.386 151.32 225.057 151.649C224.729 151.977 224.544 152.423 224.544 152.888V156.088L228.616 156.064Z" fill="white"/>
<path opacity="0.2" d="M258.424 161.528H254.344V166.192H258.424V161.528Z" fill="white"/>
<path opacity="0.2" d="M258.424 156.464H254.344V161.128H258.424V156.464Z" fill="white"/>
<path opacity="0.2" d="M233.68 166.592H229.016V171.256H233.68V166.592Z" fill="white"/>
<path opacity="0.2" d="M233.68 176.72H229.016V181.384H233.68V176.72Z" fill="white"/>
<path opacity="0.2" d="M238.752 151.136H234.088V156.064H238.752V151.136Z" fill="white"/>
<path opacity="0.2" d="M233.68 171.656H229.016V176.32H233.68V171.656Z" fill="white"/>
<path opacity="0.2" d="M238.752 161.528H234.088V166.192H238.752V161.528Z" fill="white"/>
<path opacity="0.2" d="M238.752 156.464H234.088V161.128H238.752V156.464Z" fill="white"/>
<path opacity="0.2" d="M238.752 181.792H234.088V186.72H238.752V181.792Z" fill="white"/>
<path opacity="0.2" d="M233.68 181.792H229.016V186.72H233.68V181.792Z" fill="white"/>
<path opacity="0.2" d="M233.68 151.136H229.016V156.064H233.68V151.136Z" fill="white"/>
<path opacity="0.2" d="M238.752 166.592H234.088V171.256H238.752V166.592Z" fill="white"/>
<path opacity="0.2" d="M233.68 161.528H229.016V166.192H233.68V161.528Z" fill="white"/>
<path opacity="0.2" d="M233.68 156.464H229.016V161.128H233.68V156.464Z" fill="white"/>
<path d="M249.768 163.56C249.699 163.195 249.6 162.837 249.472 162.488C248.972 161.063 248.099 159.798 246.945 158.824C245.791 157.849 244.397 157.202 242.909 156.948C241.42 156.694 239.89 156.843 238.479 157.38C237.067 157.917 235.824 158.821 234.88 160C234.433 160.555 234.059 161.165 233.768 161.816C233.273 162.909 233.016 164.096 233.016 165.296V172.56C233.015 173.253 233.101 173.944 233.272 174.616C233.397 175.13 233.576 175.629 233.808 176.104C234.01 176.548 234.251 176.974 234.528 177.376C234.744 177.664 234.96 177.936 235.192 178.176C235.477 178.492 235.784 178.786 236.112 179.056C236.38 179.275 236.661 179.478 236.952 179.664C237.457 179.985 237.993 180.253 238.552 180.464C238.824 180.56 239.096 180.648 239.352 180.72C239.703 180.807 240.058 180.873 240.416 180.92C240.682 180.954 240.949 180.973 241.216 180.976H241.432C241.869 180.976 242.304 180.944 242.736 180.88C243.008 180.832 243.28 180.776 243.536 180.712C244.519 180.455 245.449 180.024 246.28 179.44C246.581 179.231 246.867 179.001 247.136 178.752C247.871 178.079 248.483 177.283 248.944 176.4C249.184 175.945 249.38 175.468 249.528 174.976C249.751 174.258 249.872 173.512 249.888 172.76C249.888 172.76 249.888 172.592 249.888 172.512V165.248C249.906 164.683 249.866 164.117 249.768 163.56ZM247.872 176.8C247.419 177.486 246.857 178.094 246.208 178.6C245.972 178.788 245.724 178.959 245.464 179.112C244.779 179.534 244.031 179.844 243.248 180.032C242.992 180.088 242.728 180.136 242.448 180.168C242.127 180.209 241.804 180.231 241.48 180.232H241.12C240.84 180.232 240.576 180.232 240.32 180.152C239.985 180.098 239.654 180.023 239.328 179.928C239.048 179.848 238.776 179.744 238.528 179.64C237.962 179.397 237.425 179.091 236.928 178.728C236.66 178.527 236.406 178.308 236.168 178.072C235.876 177.797 235.609 177.497 235.368 177.176C235.136 176.869 234.928 176.546 234.744 176.208C234.469 175.702 234.254 175.165 234.104 174.608C233.917 173.939 233.823 173.247 233.824 172.552V165.288C233.826 163.601 234.389 161.963 235.424 160.632C236.114 159.731 236.993 158.994 238 158.472C239.084 157.906 240.289 157.612 241.512 157.616C243.254 157.616 244.944 158.209 246.304 159.296C247.665 160.384 248.616 161.901 249 163.6C249.123 164.149 249.184 164.71 249.184 165.272V172.6C249.177 173.073 249.129 173.544 249.04 174.008C248.915 174.63 248.714 175.235 248.44 175.808C248.278 176.154 248.088 176.485 247.872 176.8Z" fill="white"/>
<path d="M242.448 169.792C241.592 172.504 240.48 176.072 241.12 180.192C241.16 180.456 241.208 180.72 241.264 180.992C240.996 180.988 240.729 180.97 240.464 180.936C240.408 180.656 240.36 180.384 240.328 180.136C239.72 175.896 240.848 172.288 241.704 169.544C242.616 166.632 242.992 165.208 241.616 164.624C241.4 164.533 241.164 164.502 240.932 164.533C240.7 164.564 240.481 164.656 240.296 164.8C238.112 166.248 236.16 172.496 235.384 177.16C235.32 177.528 235.264 177.88 235.216 178.216C234.984 177.952 234.768 177.68 234.552 177.416C234.608 177.032 234.68 176.616 234.76 176.224C235.64 171.6 237.52 165.72 239.856 164.176C240.151 163.959 240.496 163.823 240.859 163.779C241.222 163.736 241.591 163.787 241.928 163.928C244 164.8 243.32 167 242.448 169.792Z" fill="white"/>
<path d="M241.056 169.6C240.256 172.168 239.08 175.928 239.312 179.928C239.312 180.208 239.312 180.488 239.376 180.776C239.096 180.704 238.824 180.616 238.576 180.52C238.576 180.224 238.536 179.936 238.528 179.64C238.368 175.64 239.528 171.912 240.328 169.36C240.638 168.518 240.863 167.647 241 166.76C240.032 167.624 237 174.664 236.944 178.76C236.928 179.091 236.942 179.423 236.984 179.752C236.693 179.565 236.412 179.362 236.144 179.144C236.144 178.816 236.144 178.464 236.184 178.104C236.52 173.864 239.072 167.472 240.464 166.208C240.566 166.086 240.702 165.998 240.854 165.953C241.007 165.909 241.169 165.911 241.32 165.96C242.112 166.24 241.736 167.432 241.056 169.6Z" fill="white"/>
<path d="M243.248 180C243.346 180.251 243.458 180.497 243.584 180.736C243.328 180.8 243.056 180.856 242.784 180.904C242.655 180.645 242.543 180.377 242.448 180.104C241.792 178.392 241.448 175.792 242.64 172.24C244.968 165.312 244.56 163.664 242.832 162.752C242.391 162.493 241.891 162.349 241.38 162.332C240.869 162.316 240.361 162.427 239.904 162.656C237.504 163.84 235.432 168.12 234.096 174.552C233.992 175.04 233.896 175.536 233.808 176.048C233.576 175.573 233.396 175.074 233.272 174.56C233.44 173.76 233.624 172.96 233.816 172.16C235.208 166.656 237.2 163.08 239.552 161.92C240.12 161.628 240.753 161.484 241.392 161.5C242.031 161.517 242.656 161.694 243.208 162.016C245.608 163.296 245.664 165.736 243.4 172.464C242.24 175.92 242.6 178.384 243.24 179.944L243.248 180Z" fill="white"/>
<path d="M247.2 178.808C246.931 179.057 246.645 179.287 246.344 179.496L246.016 179.392C245.823 179.323 245.64 179.229 245.472 179.112C244.568 178.515 243.934 177.587 243.704 176.528C243.288 175.032 243.968 172.872 244.696 170.592C245.424 168.312 246.176 165.928 245.816 164.192C245.719 163.568 245.478 162.976 245.113 162.461C244.748 161.946 244.269 161.522 243.712 161.224C242.312 160.528 240.448 160.648 238.472 161.568C236.496 162.488 234.8 165.432 233.824 167.712C233.48 168.512 233.208 169.248 233.024 169.784V167.536C233.256 166.992 233.52 166.4 233.824 165.808C234.856 163.784 236.304 161.696 238.128 160.848C240.336 159.816 242.448 159.696 244.072 160.512C244.738 160.863 245.313 161.363 245.751 161.974C246.19 162.585 246.481 163.289 246.6 164.032C247 165.952 246.216 168.424 245.456 170.816C244.768 172.984 244.12 175.024 244.472 176.296C244.569 176.785 244.776 177.246 245.078 177.643C245.381 178.039 245.77 178.361 246.216 178.584L246.304 178.624C246.588 178.742 246.892 178.805 247.2 178.808Z" fill="white"/>
<path d="M249.6 175.032C249.452 175.525 249.256 176.001 249.016 176.456C248.665 176.64 248.282 176.756 247.888 176.8H247.664H247.464C247.024 176.765 246.607 176.591 246.272 176.303C245.937 176.016 245.702 175.63 245.6 175.2C245.248 174.008 245.824 171.768 246.4 169.4C246.855 167.902 247.156 166.36 247.296 164.8C247.296 162.336 246.656 159.696 241.928 158.856C239.528 158.424 236.072 159.96 234.048 163.24C233.648 163.88 234.168 161.424 233.728 161.784C234.016 161.128 234.464 161.16 234.904 160.608C235.792 160.032 238.264 157.592 242.064 158.064C247.512 158.736 248.096 162.368 248.096 164.8C247.963 166.429 247.652 168.039 247.168 169.6C246.64 171.656 246.048 173.992 246.368 174.976C246.426 175.247 246.569 175.492 246.777 175.677C246.984 175.861 247.244 175.974 247.52 176C247.825 176.019 248.129 175.964 248.408 175.84C248.857 175.656 249.262 175.381 249.6 175.032Z" fill="white"/>
<path d="M249.952 170.68V172.56C249.952 172.64 249.952 172.728 249.952 172.808C249.952 172.888 249.952 172.808 249.952 172.808C249.737 173.279 249.417 173.695 249.016 174.024C248.739 174.224 248.406 174.331 248.064 174.328H247.832C247.711 174.313 247.595 174.268 247.496 174.197C247.397 174.125 247.317 174.03 247.264 173.92C246.904 173.256 247.352 171.912 247.648 171.168C248.688 168.793 249.143 166.203 248.976 163.616C248.976 163.16 249.024 162.88 249.024 162.864C249.034 162.759 249.083 162.662 249.162 162.593C249.241 162.523 249.343 162.485 249.448 162.488C249.576 162.837 249.675 163.195 249.744 163.56C249.744 164.152 249.648 164.744 249.592 165.336C249.48 166.472 249.344 167.608 249.128 168.736C249.072 169.04 249.328 168.92 249.264 169.224C249.068 169.825 248.833 170.413 248.56 170.984C248.368 171.424 248.152 171.856 248 172.312C247.904 172.584 247.552 173.864 248.272 173.584C248.542 173.444 248.767 173.231 248.92 172.968C248.992 172.856 249.064 172.744 249.128 172.624C249.361 172.19 249.559 171.738 249.72 171.272C249.816 171.08 249.888 170.88 249.952 170.68Z" fill="white"/>
<path d="M190.968 34.9839V55.3839C190.968 55.6809 190.85 55.9658 190.64 56.1758C190.43 56.3859 190.145 56.5039 189.848 56.5039H169.104C169.033 56.3494 168.921 56.2175 168.78 56.1229C168.638 56.0282 168.474 55.9746 168.304 55.9679C168.135 55.9596 167.966 55.9974 167.817 56.0773C167.668 56.1572 167.543 56.2762 167.455 56.4215C167.368 56.5668 167.322 56.7331 167.322 56.9025C167.322 57.072 167.368 57.2383 167.455 57.3836C167.542 57.529 167.667 57.648 167.817 57.728C167.966 57.8079 168.134 57.8459 168.303 57.8377C168.473 57.8295 168.637 57.7755 168.778 57.6815C168.919 57.5875 169.031 57.457 169.104 57.3039H189.848C190.357 57.3018 190.844 57.0988 191.203 56.7392C191.563 56.3796 191.766 55.8925 191.768 55.3839V34.9839H190.968Z" fill="#407BFF"/>
<path opacity="0.4" d="M190.968 34.9839V55.3839C190.968 55.6809 190.85 55.9658 190.64 56.1758C190.43 56.3859 190.145 56.5039 189.848 56.5039H169.104C169.033 56.3494 168.921 56.2175 168.78 56.1229C168.638 56.0282 168.474 55.9746 168.304 55.9679C168.135 55.9596 167.966 55.9974 167.817 56.0773C167.668 56.1572 167.543 56.2762 167.455 56.4215C167.368 56.5668 167.322 56.7331 167.322 56.9025C167.322 57.072 167.368 57.2383 167.455 57.3836C167.542 57.529 167.667 57.648 167.817 57.728C167.966 57.8079 168.134 57.8459 168.303 57.8377C168.473 57.8295 168.637 57.7755 168.778 57.6815C168.919 57.5875 169.031 57.457 169.104 57.3039H189.848C190.357 57.3018 190.844 57.0988 191.203 56.7392C191.563 56.3796 191.766 55.8925 191.768 55.3839V34.9839H190.968Z" fill="white"/>
<path d="M209.552 39.1838V8.80776C209.552 7.61925 208.589 6.65576 207.4 6.65576L175.328 6.65576C174.139 6.65576 173.176 7.61925 173.176 8.80776V39.1838C173.176 40.3723 174.139 41.3358 175.328 41.3358H207.4C208.589 41.3358 209.552 40.3723 209.552 39.1838Z" fill="#407BFF"/>
<path opacity="0.4" d="M209.552 39.1838V8.80776C209.552 7.61925 208.589 6.65576 207.4 6.65576L175.328 6.65576C174.139 6.65576 173.176 7.61925 173.176 8.80776V39.1838C173.176 40.3723 174.139 41.3358 175.328 41.3358H207.4C208.589 41.3358 209.552 40.3723 209.552 39.1838Z" fill="white"/>
<path opacity="0.2" d="M188.632 21.6636H183.968V26.3276H188.632V21.6636Z" fill="white"/>
<path opacity="0.2" d="M203.824 26.7275H199.16V31.3915H203.824V26.7275Z" fill="white"/>
<path opacity="0.2" d="M183.568 16.5918H178.904V21.2558H183.568V16.5918Z" fill="white"/>
<path opacity="0.2" d="M198.76 26.7275H194.096V31.3915H198.76V26.7275Z" fill="white"/>
<path opacity="0.2" d="M193.696 26.7275H189.032V31.3915H193.696V26.7275Z" fill="white"/>
<path opacity="0.2" d="M198.76 21.6636H194.096V26.3276H198.76V21.6636Z" fill="white"/>
<path opacity="0.2" d="M209.16 21.6636H204.232V26.3276H209.16V21.6636Z" fill="white"/>
<path opacity="0.2" d="M188.632 16.5918H183.968V21.2558H188.632V16.5918Z" fill="white"/>
<path opacity="0.2" d="M203.824 21.6636H199.16V26.3276H203.824V21.6636Z" fill="white"/>
<path opacity="0.2" d="M183.568 21.6636H178.904V26.3276H183.568V21.6636Z" fill="white"/>
<path opacity="0.2" d="M183.568 26.7275H178.904V31.3915H183.568V26.7275Z" fill="white"/>
<path opacity="0.2" d="M193.696 21.6636H189.032V26.3276H193.696V21.6636Z" fill="white"/>
<path opacity="0.2" d="M209.16 26.7275H204.232V31.3915H209.16V26.7275Z" fill="white"/>
<path opacity="0.2" d="M188.632 7.05566H183.968V11.1357H188.632V7.05566Z" fill="white"/>
<path opacity="0.2" d="M203.824 7.05566H199.16V11.1357H203.824V7.05566Z" fill="white"/>
<path opacity="0.2" d="M193.696 7.05566H189.032V11.1357H193.696V7.05566Z" fill="white"/>
<path opacity="0.2" d="M198.76 7.05566H194.096V11.1357H198.76V7.05566Z" fill="white"/>
<path opacity="0.2" d="M188.632 26.7275H183.968V31.3915H188.632V26.7275Z" fill="white"/>
<path opacity="0.2" d="M204.232 36.8555V40.9355H207.432C207.895 40.9334 208.339 40.7478 208.666 40.4195C208.992 40.0912 209.176 39.6467 209.176 39.1835V36.8555H204.232Z" fill="white"/>
<path opacity="0.2" d="M203.824 31.7915H199.16V36.4555H203.824V31.7915Z" fill="white"/>
<path opacity="0.2" d="M183.568 7.05566H178.904V11.1357H183.568V7.05566Z" fill="white"/>
<path opacity="0.2" d="M198.76 31.7915H194.096V36.4555H198.76V31.7915Z" fill="white"/>
<path opacity="0.2" d="M193.696 31.7915H189.032V36.4555H193.696V31.7915Z" fill="white"/>
<path opacity="0.2" d="M188.632 31.7915H183.968V36.4555H188.632V31.7915Z" fill="white"/>
<path opacity="0.2" d="M183.568 31.7915H178.904V36.4555H183.568V31.7915Z" fill="white"/>
<path opacity="0.2" d="M183.568 36.8555H178.904V40.9355H183.568V36.8555Z" fill="white"/>
<path opacity="0.2" d="M209.16 31.7915H204.232V36.4555H209.16V31.7915Z" fill="white"/>
<path opacity="0.2" d="M178.504 21.6636H173.576V26.3276H178.504V21.6636Z" fill="white"/>
<path opacity="0.2" d="M178.504 26.7275H173.576V31.3915H178.504V26.7275Z" fill="white"/>
<path opacity="0.2" d="M193.696 36.8555H189.032V40.9355H193.696V36.8555Z" fill="white"/>
<path opacity="0.2" d="M178.504 31.7915H173.576V36.4555H178.504V31.7915Z" fill="white"/>
<path opacity="0.2" d="M188.632 36.8555H183.968V40.9355H188.632V36.8555Z" fill="white"/>
<path opacity="0.2" d="M178.504 11.1277V7.05566H175.304C174.849 7.06813 174.417 7.25711 174.099 7.58261C173.781 7.90811 173.602 8.34459 173.6 8.79966V11.1277H178.504Z" fill="white"/>
<path opacity="0.2" d="M178.504 36.8555H173.6V39.1995C173.6 39.6641 173.784 40.1098 174.113 40.4383C174.442 40.7669 174.887 40.9515 175.352 40.9515H178.552L178.504 36.8555Z" fill="white"/>
<path opacity="0.2" d="M204.232 11.1277H209.152V8.79966C209.15 8.33778 208.965 7.8954 208.639 7.56879C208.312 7.24218 207.87 7.05777 207.408 7.05566H204.208L204.232 11.1277Z" fill="white"/>
<path opacity="0.2" d="M198.76 36.8555H194.096V40.9355H198.76V36.8555Z" fill="white"/>
<path opacity="0.2" d="M203.824 36.8555H199.16V40.9355H203.824V36.8555Z" fill="white"/>
<path opacity="0.2" d="M193.696 11.5278H189.032V16.1918H193.696V11.5278Z" fill="white"/>
<path opacity="0.2" d="M183.568 11.5278H178.904V16.1918H183.568V11.5278Z" fill="white"/>
<path opacity="0.2" d="M209.16 16.5918H204.232V21.2558H209.16V16.5918Z" fill="white"/>
<path opacity="0.2" d="M188.632 11.5278H183.968V16.1918H188.632V11.5278Z" fill="white"/>
<path opacity="0.2" d="M198.76 16.5918H194.096V21.2558H198.76V16.5918Z" fill="white"/>
<path opacity="0.2" d="M203.824 16.5918H199.16V21.2558H203.824V16.5918Z" fill="white"/>
<path opacity="0.2" d="M178.504 16.5918H173.576V21.2558H178.504V16.5918Z" fill="white"/>
<path opacity="0.2" d="M178.504 11.5278H173.576V16.1918H178.504V11.5278Z" fill="white"/>
<path opacity="0.2" d="M209.16 11.5278H204.232V16.1918H209.16V11.5278Z" fill="white"/>
<path opacity="0.2" d="M193.696 16.5918H189.032V21.2558H193.696V16.5918Z" fill="white"/>
<path opacity="0.2" d="M198.76 11.5278H194.096V16.1918H198.76V11.5278Z" fill="white"/>
<path opacity="0.2" d="M203.824 11.5278H199.16V16.1918H203.824V11.5278Z" fill="white"/>
<path d="M180.8 23.8476C180.8 23.8476 185.52 29.4476 191.352 29.4476C197.184 29.4476 201.896 23.8476 201.896 23.8476C201.896 23.8476 197.176 18.2476 191.352 18.2476C185.528 18.2476 180.8 23.8476 180.8 23.8476Z" stroke="white" stroke-linecap="round" stroke-linejoin="round"/>
<path d="M195.04 23.0475C195.042 23.776 194.827 24.4886 194.423 25.095C194.019 25.7014 193.445 26.1743 192.772 26.4538C192.099 26.7334 191.359 26.8069 190.644 26.6652C189.929 26.5234 189.273 26.1728 188.758 25.6576C188.243 25.1425 187.892 24.4861 187.75 23.7715C187.609 23.0569 187.682 22.3163 187.962 21.6435C188.241 20.9708 188.714 20.3961 189.32 19.9924C189.927 19.5886 190.639 19.3739 191.368 19.3755C192.342 19.3755 193.276 19.7624 193.964 20.451C194.653 21.1396 195.04 22.0736 195.04 23.0475V23.0475Z" stroke="white" stroke-miterlimit="10"/>
<path d="M191.776 21.4319C191.774 21.1958 191.843 20.9646 191.973 20.7675C192.103 20.5705 192.289 20.4164 192.506 20.325C192.724 20.2335 192.964 20.2088 193.196 20.2539C193.427 20.299 193.64 20.4118 193.808 20.5782C193.975 20.7446 194.09 20.957 194.136 21.1884C194.183 21.4199 194.16 21.6599 194.07 21.8782C193.98 22.0965 193.827 22.2831 193.631 22.4145C193.435 22.5458 193.204 22.6159 192.968 22.6159C192.653 22.6159 192.351 22.4915 192.128 22.2696C191.905 22.0478 191.778 21.7467 191.776 21.4319Z" stroke="white" stroke-miterlimit="10"/>
<path d="M191.368 18.24V14.48" stroke="white" stroke-linecap="round" stroke-linejoin="round"/>
<path d="M194.64 18.5116L195.984 15.4556" stroke="white" stroke-linecap="round" stroke-linejoin="round"/>
<path d="M197.784 19.9039L199.664 17.6719" stroke="white" stroke-linecap="round" stroke-linejoin="round"/>
<path d="M200.304 21.6235L202.12 20.4155" stroke="white" stroke-linecap="round" stroke-linejoin="round"/>
<path d="M188.088 18.5116L186.744 15.4556" stroke="white" stroke-linecap="round" stroke-linejoin="round"/>
<path d="M184.944 19.9039L183.064 17.6719" stroke="white" stroke-linecap="round" stroke-linejoin="round"/>
<path d="M182.424 21.6235L180.608 20.4155" stroke="white" stroke-linecap="round" stroke-linejoin="round"/>
<path d="M136.992 57.7681C136.824 57.7733 136.661 57.8246 136.52 57.9163C136.378 58.008 136.265 58.1366 136.192 58.2881H114.92C114.412 58.2902 113.924 58.4932 113.565 58.8528C113.205 59.2124 113.002 59.6995 113 60.2081V82.0401C113 82.3371 112.882 82.622 112.672 82.832C112.462 83.0421 112.177 83.1601 111.88 83.1601H103.336V83.9601H111.88C112.389 83.958 112.876 83.755 113.235 83.3954C113.595 83.0358 113.798 82.5487 113.8 82.0401V60.2081C113.8 59.911 113.918 59.6262 114.128 59.4161C114.338 59.2061 114.623 59.0881 114.92 59.0881H136.144C136.213 59.2418 136.323 59.374 136.461 59.4707C136.599 59.5674 136.76 59.625 136.928 59.6375C137.097 59.65 137.265 59.6168 137.416 59.5416C137.566 59.4664 137.694 59.3518 137.785 59.21C137.876 59.0682 137.927 58.9044 137.933 58.736C137.939 58.5675 137.899 58.4006 137.818 58.253C137.737 58.1053 137.617 57.9823 137.472 57.8969C137.326 57.8116 137.161 57.7671 136.992 57.7681Z" fill="#407BFF"/>
<path opacity="0.4" d="M136.992 57.7681C136.824 57.7733 136.661 57.8246 136.52 57.9163C136.378 58.008 136.265 58.1366 136.192 58.2881H114.92C114.412 58.2902 113.924 58.4932 113.565 58.8528C113.205 59.2124 113.002 59.6995 113 60.2081V82.0401C113 82.3371 112.882 82.622 112.672 82.832C112.462 83.0421 112.177 83.1601 111.88 83.1601H103.336V83.9601H111.88C112.389 83.958 112.876 83.755 113.235 83.3954C113.595 83.0358 113.798 82.5487 113.8 82.0401V60.2081C113.8 59.911 113.918 59.6262 114.128 59.4161C114.338 59.2061 114.623 59.0881 114.92 59.0881H136.144C136.213 59.2418 136.323 59.374 136.461 59.4707C136.599 59.5674 136.76 59.625 136.928 59.6375C137.097 59.65 137.265 59.6168 137.416 59.5416C137.566 59.4664 137.694 59.3518 137.785 59.21C137.876 59.0682 137.927 58.9044 137.933 58.736C137.939 58.5675 137.899 58.4006 137.818 58.253C137.737 58.1053 137.617 57.9823 137.472 57.8969C137.326 57.8116 137.161 57.7671 136.992 57.7681Z" fill="white"/>
<path d="M101.184 65.3682H70.8083C69.6197 65.3682 68.6562 66.3316 68.6562 67.5202V99.5922C68.6562 100.781 69.6197 101.744 70.8083 101.744H101.184C102.373 101.744 103.336 100.781 103.336 99.5922V67.5202C103.336 66.3316 102.373 65.3682 101.184 65.3682Z" fill="#407BFF"/>
<path opacity="0.4" d="M101.184 65.3682H70.8083C69.6197 65.3682 68.6562 66.3316 68.6562 67.5202V99.5922C68.6562 100.781 69.6197 101.744 70.8083 101.744H101.184C102.373 101.744 103.336 100.781 103.336 99.5922V67.5202C103.336 66.3316 102.373 65.3682 101.184 65.3682Z" fill="white"/>
<path opacity="0.2" d="M88.3283 86.2881H83.6643V90.9521H88.3283V86.2881Z" fill="white"/>
<path opacity="0.2" d="M93.3923 71.0962H88.7283V75.7602H93.3923V71.0962Z" fill="white"/>
<path opacity="0.2" d="M83.2563 91.3599H78.5923V96.0239H83.2563V91.3599Z" fill="white"/>
<path opacity="0.2" d="M93.3923 76.1602H88.7283V80.8242H93.3923V76.1602Z" fill="white"/>
<path opacity="0.2" d="M93.3923 81.2241H88.7283V85.8881H93.3923V81.2241Z" fill="white"/>
<path opacity="0.2" d="M88.3283 76.1602H83.6643V80.8242H88.3283V76.1602Z" fill="white"/>
<path opacity="0.2" d="M88.3283 65.7681H83.6643V70.6961H88.3283V65.7681Z" fill="white"/>
<path opacity="0.2" d="M83.2563 86.2881H78.5923V90.9521H83.2563V86.2881Z" fill="white"/>
<path opacity="0.2" d="M88.3283 71.0962H83.6643V75.7602H88.3283V71.0962Z" fill="white"/>
<path opacity="0.2" d="M88.3283 91.3599H83.6643V96.0239H88.3283V91.3599Z" fill="white"/>
<path opacity="0.2" d="M93.3923 91.3599H88.7283V96.0239H93.3923V91.3599Z" fill="white"/>
<path opacity="0.2" d="M88.3283 81.2241H83.6643V85.8881H88.3283V81.2241Z" fill="white"/>
<path opacity="0.2" d="M93.3923 65.7681H88.7283V70.6961H93.3923V65.7681Z" fill="white"/>
<path opacity="0.2" d="M73.1362 86.2881H69.0562V90.9521H73.1362V86.2881Z" fill="white"/>
<path opacity="0.2" d="M73.1362 71.0962H69.0562V75.7602H73.1362V71.0962Z" fill="white"/>
<path opacity="0.2" d="M73.1362 81.2241H69.0562V85.8881H73.1362V81.2241Z" fill="white"/>
<path opacity="0.2" d="M73.1362 76.1602H69.0562V80.8242H73.1362V76.1602Z" fill="white"/>
<path opacity="0.2" d="M93.3923 86.2881H88.7283V90.9521H93.3923V86.2881Z" fill="white"/>
<path opacity="0.2" d="M98.8562 70.6961H102.936V67.4961C102.936 67.0315 102.752 66.5859 102.423 66.2573C102.094 65.9287 101.649 65.7441 101.184 65.7441H98.8562V70.6961Z" fill="white"/>
<path opacity="0.2" d="M98.4562 71.0962H93.7922V75.7602H98.4562V71.0962Z" fill="white"/>
<path opacity="0.2" d="M73.1362 91.3599H69.0562V96.0239H73.1362V91.3599Z" fill="white"/>
<path opacity="0.2" d="M98.4562 76.1602H93.7922V80.8242H98.4562V76.1602Z" fill="white"/>
<path opacity="0.2" d="M98.4562 81.2241H93.7922V85.8881H98.4562V81.2241Z" fill="white"/>
<path opacity="0.2" d="M98.4562 86.2881H93.7922V90.9521H98.4562V86.2881Z" fill="white"/>
<path opacity="0.2" d="M98.4562 91.3599H93.7922V96.0239H98.4562V91.3599Z" fill="white"/>
<path opacity="0.2" d="M102.936 91.3599H98.8562V96.0239H102.936V91.3599Z" fill="white"/>
<path opacity="0.2" d="M98.4562 65.7681H93.7922V70.6961H98.4562V65.7681Z" fill="white"/>
<path opacity="0.2" d="M88.3283 96.4243H83.6643V101.352H88.3283V96.4243Z" fill="white"/>
<path opacity="0.2" d="M93.3923 96.4243H88.7283V101.352H93.3923V96.4243Z" fill="white"/>
<path opacity="0.2" d="M102.936 81.2241H98.8562V85.8881H102.936V81.2241Z" fill="white"/>
<path opacity="0.2" d="M98.4562 96.4243H93.7922V101.352H98.4562V96.4243Z" fill="white"/>
<path opacity="0.2" d="M102.936 86.2881H98.8562V90.9521H102.936V86.2881Z" fill="white"/>
<path opacity="0.2" d="M73.1282 96.4243H69.0562V99.6243C69.0583 100.086 69.2427 100.529 69.5693 100.855C69.8959 101.182 70.3383 101.366 70.8002 101.368H73.1282V96.4243Z" fill="white"/>
<path opacity="0.2" d="M98.8562 96.4239V101.344H101.184C101.647 101.344 102.092 101.16 102.42 100.834C102.749 100.507 102.934 100.063 102.936 99.5999V96.3999L98.8562 96.4239Z" fill="white"/>
<path opacity="0.2" d="M73.1282 70.6961V65.7681H70.8002C70.3369 65.7702 69.8933 65.9557 69.5665 66.284C69.2396 66.6124 69.0561 67.0568 69.0562 67.5201V70.7201L73.1282 70.6961Z" fill="white"/>
<path opacity="0.2" d="M102.936 76.1602H98.8562V80.8242H102.936V76.1602Z" fill="white"/>
<path opacity="0.2" d="M102.936 71.0962H98.8562V75.7602H102.936V71.0962Z" fill="white"/>
<path opacity="0.2" d="M78.1923 81.2241H73.5283V85.8881H78.1923V81.2241Z" fill="white"/>
<path opacity="0.2" d="M78.1923 91.3599H73.5283V96.0239H78.1923V91.3599Z" fill="white"/>
<path opacity="0.2" d="M83.2563 65.7681H78.5923V70.6961H83.2563V65.7681Z" fill="white"/>
<path opacity="0.2" d="M78.1923 86.2881H73.5283V90.9521H78.1923V86.2881Z" fill="white"/>
<path opacity="0.2" d="M83.2563 76.1602H78.5923V80.8242H83.2563V76.1602Z" fill="white"/>
<path opacity="0.2" d="M83.2563 71.0962H78.5923V75.7602H83.2563V71.0962Z" fill="white"/>
<path opacity="0.2" d="M83.2563 96.4243H78.5923V101.352H83.2563V96.4243Z" fill="white"/>
<path opacity="0.2" d="M78.1923 96.4243H73.5283V101.352H78.1923V96.4243Z" fill="white"/>
<path opacity="0.2" d="M78.1923 65.7681H73.5283V70.6961H78.1923V65.7681Z" fill="white"/>
<path opacity="0.2" d="M83.2563 81.2241H78.5923V85.8881H83.2563V81.2241Z" fill="white"/>
<path opacity="0.2" d="M78.1923 76.1602H73.5283V80.8242H78.1923V76.1602Z" fill="white"/>
<path opacity="0.2" d="M78.1923 71.0962H73.5283V75.7602H78.1923V71.0962Z" fill="white"/>
<path d="M85.9923 95.6642C83.7474 95.6621 81.5949 94.77 80.0068 93.1833C78.4187 91.5967 77.5245 89.4451 77.5203 87.2002V79.9202C77.5203 77.6733 78.4128 75.5184 80.0017 73.9296C81.5905 72.3408 83.7453 71.4482 85.9923 71.4482C88.2392 71.4482 90.3941 72.3408 91.9829 73.9296C93.5717 75.5184 94.4643 77.6733 94.4643 79.9202V87.2002C94.46 89.4451 93.5658 91.5967 91.9777 93.1833C90.3896 94.77 88.2371 95.6621 85.9923 95.6642ZM85.9923 72.2563C83.9596 72.2584 82.0106 73.0662 80.5725 74.5028C79.1344 75.9394 78.3245 77.8875 78.3203 79.9202V87.2002C78.3203 89.235 79.1286 91.1864 80.5673 92.6252C82.0061 94.0639 83.9575 94.8722 85.9923 94.8722C88.027 94.8722 89.9784 94.0639 91.4172 92.6252C92.856 91.1864 93.6643 89.235 93.6643 87.2002V79.9202C93.66 77.8875 92.8501 75.9394 91.412 74.5028C89.9739 73.0662 88.025 72.2584 85.9923 72.2563Z" fill="white"/>
<path d="M89.8162 82.5682C90.311 82.5682 90.7122 82.0238 90.7122 81.3522C90.7122 80.6807 90.311 80.1362 89.8162 80.1362C89.3213 80.1362 88.9202 80.6807 88.9202 81.3522C88.9202 82.0238 89.3213 82.5682 89.8162 82.5682Z" fill="white"/>
<path d="M83.0642 81.3522C83.0642 82.0162 82.6642 82.5602 82.1682 82.5602C81.6722 82.5602 81.2722 82.0162 81.2722 81.3522C81.2722 80.6882 81.6722 80.1362 82.1682 80.1362C82.6642 80.1362 83.0642 80.6802 83.0642 81.3522Z" fill="white"/>
<path d="M86.0403 82.5601L84.3523 86.8881H86.0403V82.5601Z" fill="white"/>
<path d="M85.6882 89.8879C84.9252 89.928 84.1622 89.8081 83.4482 89.5359L83.7922 88.8159L83.6162 89.1759L83.7922 88.8159C83.7922 88.8159 85.2242 89.4479 88.2802 88.8159L88.4482 89.6159C87.5404 89.8038 86.6153 89.895 85.6882 89.8879Z" fill="white"/>
<path d="M318.384 12.2319H231.224C228.957 12.2319 227.12 14.0694 227.12 16.3359V103.496C227.12 105.762 228.957 107.6 231.224 107.6H318.384C320.65 107.6 322.488 105.762 322.488 103.496V16.3359C322.488 14.0694 320.65 12.2319 318.384 12.2319Z" fill="#407BFF"/>
<path opacity="0.5" d="M308.52 71.0156H241.088C239.042 71.0156 237.384 72.674 237.384 74.7196V87.0556C237.384 89.1013 239.042 90.7596 241.088 90.7596H308.52C310.565 90.7596 312.224 89.1013 312.224 87.0556V74.7196C312.224 72.674 310.565 71.0156 308.52 71.0156Z" fill="white"/>
<path d="M250.76 80.8957L252.944 82.0797L252 83.7197L249.752 82.3997L249.792 84.7997H247.912V82.3517L245.704 83.6717L244.8 82.0797L246.984 80.8957L244.8 79.6957L245.76 78.0477L247.968 79.3757V76.9277H249.848L249.808 79.3757L252.016 78.0477L253 79.6957L250.76 80.8957Z" fill="white"/>
<path d="M263.728 80.8959L265.912 82.0799L264.936 83.7199L262.728 82.3999V84.7999H260.848V82.3519L258.648 83.6719L257.68 82.0319L259.864 80.8479L257.68 79.6479L258.648 77.9999L260.848 79.3279V76.8799H262.728V79.3279L264.936 77.9999L265.912 79.6479L263.728 80.8959Z" fill="white"/>
<path d="M276.704 80.8959L278.888 82.0799L277.904 83.7199L275.704 82.3999L275.744 84.7999H273.856V82.3519L271.648 83.6719L270.688 82.0319L272.872 80.8479L270.688 79.6479L271.648 77.9999L273.856 79.3279V76.8799H275.744L275.704 79.3279L277.904 77.9999L278.888 79.6479L276.704 80.8959Z" fill="white"/>
<path d="M289.68 80.8959L291.864 82.0799L290.88 83.7199L288.672 82.3999L288.712 84.7999H286.832V82.3519L284.632 83.6719L283.672 82.0319L285.856 80.8479L283.672 79.6479L284.632 77.9999L286.832 79.3279V76.8799H288.712L288.672 79.3279L290.88 77.9999L291.864 79.6479L289.68 80.8959Z" fill="white"/>
<path d="M302.648 80.8957L304.8 82.0797L303.824 83.7197L301.648 82.3997L301.688 84.7997H299.808V82.3517L297.6 83.7197L296.632 82.0797L298.816 80.8957L296.632 79.6957L297.6 78.0477L299.8 79.3757V76.9277H301.68L301.64 79.3757L303.848 78.0477L304.824 79.6957L302.648 80.8957Z" fill="white"/>
<path opacity="0.5" d="M289.92 56.862C298.271 48.511 298.271 34.9714 289.92 26.6204C281.569 18.2695 268.029 18.2695 259.678 26.6204C251.327 34.9714 251.327 48.511 259.678 56.862C268.029 65.213 281.569 65.213 289.92 56.862Z" fill="white"/>
<path d="M283.2 40.544H266.48C266.178 40.5429 265.879 40.6016 265.6 40.7166C265.321 40.8316 265.067 41.0007 264.854 41.2141C264.641 41.4275 264.471 41.681 264.356 41.9601C264.241 42.2391 264.183 42.5382 264.184 42.84V53.024C264.184 53.6329 264.426 54.2169 264.856 54.6475C265.287 55.0781 265.871 55.32 266.48 55.32H283.2C283.809 55.32 284.393 55.0781 284.823 54.6475C285.254 54.2169 285.496 53.6329 285.496 53.024V42.84C285.497 42.5382 285.438 42.2391 285.323 41.9601C285.208 41.681 285.039 41.4275 284.826 41.2141C284.612 41.0007 284.359 40.8316 284.08 40.7166C283.801 40.6016 283.502 40.5429 283.2 40.544ZM276.376 51.88H273.304L273.944 47.712C273.532 47.5096 273.201 47.1737 273.004 46.759C272.807 46.3443 272.757 45.8753 272.861 45.4282C272.964 44.9812 273.217 44.5825 273.576 44.297C273.935 44.0115 274.381 43.8562 274.84 43.8562C275.299 43.8562 275.744 44.0115 276.104 44.297C276.463 44.5825 276.715 44.9812 276.819 45.4282C276.923 45.8753 276.872 46.3443 276.676 46.759C276.479 47.1737 276.148 47.5096 275.736 47.712L276.376 51.88Z" fill="#407BFF"/>
<path d="M269.984 38.9119L269.672 37.3119C269.404 35.972 269.678 34.5804 270.436 33.4431C271.194 32.3059 272.372 31.5163 273.712 31.2479C275.052 30.9795 276.443 31.2543 277.581 32.012C278.718 32.7696 279.508 33.948 279.776 35.2879L280.088 36.8479L283.04 36.2559L282.72 34.6559C282.528 33.5879 282.125 32.569 281.535 31.6586C280.944 30.7483 280.178 29.9648 279.281 29.3541C278.384 28.7434 277.375 28.3177 276.311 28.102C275.248 27.8862 274.152 27.8846 273.088 28.0974C272.024 28.3102 271.013 28.7331 270.115 29.3413C269.216 29.9494 268.448 30.7307 267.855 31.6394C267.262 32.5481 266.856 33.5659 266.661 34.6333C266.466 35.7007 266.486 36.7963 266.72 37.8559L267.032 39.4559L269.984 38.9119Z" fill="#407BFF"/>
<path opacity="0.2" d="M286.72 97.8721H262.88C262.6 97.8721 262.331 97.7608 262.133 97.5628C261.935 97.3647 261.824 97.0961 261.824 96.8161C261.826 96.5374 261.938 96.2708 262.136 96.0745C262.334 95.8782 262.601 95.7681 262.88 95.7681H286.72C286.998 95.7681 287.266 95.8782 287.464 96.0745C287.661 96.2708 287.774 96.5374 287.776 96.8161C287.776 97.0961 287.664 97.3647 287.466 97.5628C287.268 97.7608 287 97.8721 286.72 97.8721Z" fill="black"/>
<path d="M207.752 97.4321L215.944 90.4721C215.944 90.4721 222.92 83.0801 224.392 82.9201C225.864 82.7601 229.04 83.3921 229.88 84.4481C230.72 85.5041 224.424 92.3681 222.944 93.6321C221.464 94.8961 218.512 94.6881 218.512 94.6881L210.704 102.232L207.752 97.4321Z" fill="#EBB376"/>
<path d="M144.552 283.288H136.632C136.503 283.291 136.38 283.337 136.28 283.418C136.18 283.499 136.11 283.611 136.08 283.736L134.792 289.544C134.74 289.794 134.789 290.055 134.928 290.269C135.067 290.484 135.286 290.634 135.536 290.688H135.744C138.304 290.648 140.176 290.488 143.392 290.488C145.376 290.488 151.352 290.696 154.088 290.696C156.824 290.696 157.184 287.992 156.064 287.744C151.04 286.648 147.264 285.136 145.664 283.688C145.358 283.418 144.96 283.275 144.552 283.288Z" fill="#263238"/>
<path d="M178.136 283.088H170.216C170.087 283.089 169.961 283.134 169.861 283.215C169.761 283.297 169.691 283.41 169.664 283.536L168.376 289.336C168.324 289.586 168.373 289.847 168.512 290.062C168.651 290.276 168.87 290.426 169.12 290.48H169.328C171.896 290.44 173.76 290.28 176.976 290.28C178.96 290.28 184.936 290.488 187.672 290.488C190.408 290.488 190.768 287.784 189.648 287.536C184.624 286.44 180.848 284.928 179.248 283.48C178.941 283.213 178.543 283.072 178.136 283.088Z" fill="#263238"/>
<path d="M140.352 136.496H174.952C178.24 154.456 187.648 227.16 180.264 283.8L168.712 285.064C168.712 285.064 170.52 198.024 160.184 170.224C158.992 185.104 157.576 200.928 156.352 209.352C153.344 230.088 146.56 284.112 146.56 284.112L134.848 284.432C134.848 284.432 137.416 232.024 138.536 211.632C139.776 189.528 140.304 141.032 140.352 136.496Z" fill="#263238"/>
<path opacity="0.2" d="M140.352 136.496H174.952C178.24 154.456 187.648 227.16 180.264 283.8L168.712 285.064C168.712 285.064 170.52 198.024 160.184 170.224C158.992 185.104 157.576 200.928 156.352 209.352C153.344 230.088 146.56 284.112 146.56 284.112L134.848 284.432C134.848 284.432 137.416 232.024 138.536 211.632C139.776 189.528 140.304 141.032 140.352 136.496Z" fill="white"/>
<path opacity="0.2" d="M160.184 170.224C161.886 175.097 163.178 180.104 164.048 185.192C165.016 171.952 161.144 157.912 161.144 157.912L160.184 170.224Z" fill="black"/>
<path d="M171.792 76.6318C177.256 77.2958 188.016 102.136 192.128 104.352C196.24 106.568 212.544 92.6398 212.544 92.6398L216.656 97.7038C216.656 97.7038 198.144 117.488 190.864 115.304C183.584 113.12 173.264 94.4158 170.136 88.5598C167.008 82.7038 171.792 76.6318 171.792 76.6318Z" fill="#407BFF"/>
<path opacity="0.5" d="M216.656 97.7041C216.656 97.7041 198.144 117.48 190.864 115.304C187.664 114.336 183.936 110.232 180.464 105.432C176.68 100.029 173.233 94.3968 170.144 88.5681C169.469 87.2331 169.103 85.7636 169.073 84.2681C169.042 82.7726 169.348 81.2894 169.968 79.9281C170.435 78.7656 171.051 77.6685 171.8 76.6641C177.264 77.3281 188.024 102.176 192.136 104.392C196.248 106.608 212.552 92.6801 212.552 92.6801L216.656 97.7041Z" fill="white"/>
<path opacity="0.2" d="M180.456 105.392C176.671 99.9885 173.225 94.3564 170.136 88.5277C169.461 87.1927 169.095 85.7232 169.065 84.2277C169.034 82.7322 169.34 81.249 169.96 79.8877C173.072 83.7197 179.4 92.9197 180.456 105.392Z" fill="black"/>
<path d="M171.792 76.6321C171.792 76.6321 149.784 75.5921 133.392 79.7281C133.392 79.7281 139.536 127.336 139.264 148.072L178.464 145.96C178.464 145.96 177.512 98.0241 171.792 76.6321Z" fill="#407BFF"/>
<path opacity="0.6" d="M139.264 148.072C139.392 138.432 138.128 122.984 136.744 109.208C136.216 103.952 135.672 98.9359 135.144 94.5839C134.144 85.8239 133.36 79.7359 133.36 79.7359C149.752 75.5999 171.76 76.6399 171.76 76.6399C177.48 98.0319 178.472 145.968 178.472 145.968L139.264 148.072Z" fill="white"/>
<path opacity="0.2" d="M136.744 109.2C136.216 103.944 135.672 98.9281 135.144 94.5761L137.664 92.6401C137.664 92.6401 139.888 101.312 136.744 109.2Z" fill="black"/>
<path opacity="0.2" d="M171.504 128L169.352 128.104L163.512 128.376L159.928 128.544L152.464 128.896C152.464 128.896 152.464 128.528 152.424 127.856C152.36 126.408 152.232 123.544 152.016 119.936C151.864 117.248 151.656 114.144 151.4 110.896C151.216 108.656 151.016 106.352 150.784 104.072C150.44 100.688 150.04 97.344 149.568 94.336C149.32 92.736 149.048 91.208 148.768 89.832L167.336 88.624C167.336 88.624 167.576 89.8 167.936 91.824C168.176 93.152 168.464 94.848 168.776 96.832C170.45 107.14 171.361 117.558 171.504 128Z" fill="black"/>
<path opacity="0.2" d="M163.512 128.392L159.928 128.56C162.48 122.072 163.48 112.928 161.768 110.08C159.448 106.224 156.6 113.616 154.568 122.48C154.187 124.393 153.454 126.218 152.408 127.864C152.344 126.416 152.216 123.552 152 119.944C153.145 118.043 154.01 115.988 154.568 113.84C157.424 103.816 159.96 102.024 163.224 104.656C166.232 107.064 167.112 118.744 163.512 128.392Z" fill="black"/>
<path opacity="0.2" d="M169.352 128.12C170.08 119.616 168.96 105.288 166.464 100.88C163.608 95.824 157.304 95.712 154.272 104.88C153.606 107.02 152.639 109.053 151.4 110.92C151.216 108.68 151.016 106.376 150.784 104.096C151.637 103.028 152.4 101.891 153.064 100.696C156.52 94.576 161.864 91.728 167.144 95.288C167.761 95.7306 168.301 96.2711 168.744 96.888C170.426 107.177 171.348 117.576 171.504 128L169.352 128.12Z" fill="black"/>
<path opacity="0.2" d="M167.928 91.856C163.776 88.72 158.168 89.568 154.584 92.536C153.215 93.7747 151.412 94.4217 149.568 94.336C149.32 92.736 149.048 91.208 148.768 89.832L167.336 88.624C167.336 88.624 167.568 89.8 167.928 91.856Z" fill="black"/>
<path d="M146.24 78.0799C149.4 80.9519 157.144 79.8879 157.144 79.8879C157.144 79.8879 161.944 78.5679 160.96 77.0559C158.112 76.5839 156.736 75.2559 156.16 73.5599C155.843 72.5055 155.745 71.3975 155.872 70.3039C155.917 69.6945 155.997 69.0881 156.112 68.4879L146.512 61.3999C147.8 66.0799 149.336 74.6879 146.24 78.0799Z" fill="#EBB376"/>
<path opacity="0.2" d="M148.752 65.9038C149.136 71.6478 153.856 73.2318 156.168 73.5598C155.851 72.5054 155.753 71.3974 155.88 70.3038L148.752 65.9038Z" fill="black"/>
<path d="M162.744 46.52C162.744 46.52 165.416 55.16 161.232 59.264C157.048 63.368 154.584 46.912 154.584 46.912L162.744 46.52Z" fill="#263238"/>
<path d="M148.664 68.3279C149.865 69.6372 151.463 70.5156 153.212 70.8278C154.961 71.14 156.764 70.8688 158.344 70.0559C160.41 69.0471 162.012 67.2872 162.824 65.1359C162.938 64.8372 163.037 64.5328 163.12 64.2239C164.616 58.4799 163.92 48.9199 157.688 46.2319C156.311 45.6334 154.805 45.3968 153.311 45.5448C151.817 45.6928 150.386 46.2205 149.154 47.0775C147.922 47.9346 146.929 49.0926 146.271 50.4414C145.612 51.7903 145.31 53.2852 145.392 54.7839C145.64 61.1999 145.48 64.9919 148.664 68.3279Z" fill="#EBB376"/>
<path d="M155.104 56.7998C155.056 57.3118 155.36 57.7518 155.704 57.7518C156.048 57.7518 156.328 57.3358 156.344 56.8158C156.36 56.2958 156.08 55.8638 155.744 55.8638C155.408 55.8638 155.12 56.2478 155.104 56.7998Z" fill="#263238"/>
<path d="M161.016 56.896C160.968 57.408 161.28 57.848 161.616 57.848C161.952 57.848 162.24 57.432 162.256 56.912C162.272 56.392 161.992 55.96 161.656 55.96C161.32 55.96 161.032 56.4 161.016 56.896Z" fill="#263238"/>
<path d="M159.136 57.1118C159.721 58.7257 160.529 60.2498 161.536 61.6398C161.17 61.8885 160.754 62.0545 160.318 62.1263C159.881 62.1982 159.434 62.1741 159.008 62.0558L159.136 57.1118Z" fill="#D58745"/>
<path d="M153.304 54.8237C153.36 54.833 153.418 54.8275 153.471 54.8079C153.524 54.7882 153.571 54.7551 153.608 54.7117C153.839 54.4032 154.138 54.1529 154.483 53.9807C154.827 53.8085 155.207 53.7191 155.592 53.7197C155.674 53.7264 155.754 53.7008 155.817 53.6484C155.88 53.5961 155.92 53.5211 155.928 53.4397C155.931 53.3998 155.927 53.3596 155.914 53.3214C155.902 53.2833 155.882 53.248 155.856 53.2175C155.83 53.187 155.798 53.162 155.763 53.1438C155.727 53.1257 155.688 53.1147 155.648 53.1117C155.161 53.0971 154.678 53.2 154.239 53.4116C153.801 53.6233 153.42 53.9375 153.128 54.3277C153.078 54.3895 153.054 54.4686 153.061 54.5479C153.069 54.6272 153.107 54.7004 153.168 54.7517C153.21 54.7811 153.256 54.8053 153.304 54.8237Z" fill="#263238"/>
<path d="M163.6 54.904C163.657 54.9235 163.719 54.9235 163.776 54.904C163.813 54.8883 163.846 54.8655 163.874 54.8369C163.902 54.8083 163.924 54.7744 163.939 54.7372C163.954 54.7001 163.961 54.6604 163.961 54.6203C163.96 54.5803 163.952 54.5408 163.936 54.504C163.74 54.0557 163.44 53.6611 163.06 53.3533C162.68 53.0456 162.231 52.8339 161.752 52.736C161.672 52.7246 161.592 52.7451 161.527 52.793C161.463 52.841 161.42 52.9125 161.408 52.992C161.399 53.0712 161.42 53.151 161.467 53.215C161.515 53.2789 161.585 53.3223 161.664 53.336C162.04 53.4243 162.391 53.5999 162.687 53.8486C162.983 54.0974 163.216 54.4124 163.368 54.768C163.395 54.8058 163.429 54.8374 163.469 54.8609C163.509 54.8843 163.554 54.899 163.6 54.904Z" fill="#263238"/>
<path d="M150.264 46.8638L150.688 49.6798C150.216 49.9224 149.853 50.3336 149.671 50.8316C149.489 51.3296 149.501 51.878 149.704 52.3678C150.68 54.7678 149.432 58.4558 147.648 59.9758C147.648 59.9758 147.56 58.9518 146.696 59.2158C145.832 59.4798 146.216 64.8158 147.992 67.3678C145.735 65.0358 144.123 62.158 143.312 59.0158C141.832 53.8398 141.984 49.9998 143 47.9518L150.264 46.8638Z" fill="#263238"/>
<path d="M159.496 63.6241C159.228 64.3671 159.017 65.1293 158.864 65.9041C158.725 65.912 158.586 65.912 158.448 65.9041C156.56 65.8241 155.712 65.1601 155.344 64.4481C155.173 64.0969 155.088 63.7104 155.096 63.3201C155.094 63.0983 155.124 62.8775 155.184 62.6641C156.323 63.2379 157.573 63.5573 158.848 63.6001C159.248 63.6241 159.496 63.6241 159.496 63.6241Z" fill="#263238"/>
<path d="M158.848 63.5839L158.648 64.256C156.872 64.168 155.632 63.872 155.096 63.304C155.094 63.0822 155.124 62.8614 155.184 62.6479C156.323 63.2218 157.573 63.5412 158.848 63.5839Z" fill="white"/>
<path d="M158.448 65.8881C156.56 65.8081 155.712 65.1441 155.344 64.4321C156.062 64.4787 156.766 64.652 157.424 64.9441C157.857 65.142 158.216 65.4727 158.448 65.8881Z" fill="#DE5753"/>
<path d="M154.496 48.6159C154.702 48.3357 154.999 48.1356 155.336 48.0495C155.672 47.9635 156.029 47.9968 156.344 48.1439C157.696 48.5359 158.888 49.8959 160.28 51.6239C161.672 53.3519 164.424 53.3599 165.08 52.3359C165.736 51.3119 164.448 49.8799 164.448 49.8799C164.448 49.8799 165.632 43.3119 158.472 41.8079C151.312 40.3039 147.544 43.4719 147.544 43.4719C147.544 43.4719 141.6 43.6719 141.144 49.1679C140.989 51.3999 141.124 53.6425 141.544 55.8399C141.544 55.8399 139.944 57.8479 142.952 57.7279C146.368 57.5919 150.472 55.7359 150.672 52.4159C150.872 49.0959 154.496 48.6159 154.496 48.6159Z" fill="#263238"/>
<path d="M142.48 60.0001C143.164 61.4663 144.401 62.6022 145.92 63.1601C147.936 63.8801 149.12 62.1121 148.672 60.1281C148.272 58.3601 146.76 55.8081 144.672 55.9601C142.584 56.1121 141.664 58.1761 142.48 60.0001Z" fill="#EBB376"/>
<path d="M133.392 79.728C127.656 81.4 119.64 120.432 120.696 125.496C121.752 130.56 141.896 151.896 141.896 151.896L147.496 147.648C147.496 147.648 130.376 123.408 130.168 118.344C129.96 113.28 137.76 94.504 137.76 94.504C137.76 94.504 137.552 88.176 136.704 85.008C136.109 82.9759 134.962 81.1484 133.392 79.728Z" fill="#407BFF"/>
<path opacity="0.5" d="M133.392 79.728C127.656 81.4 119.64 120.432 120.696 125.496C121.752 130.56 141.896 151.896 141.896 151.896L147.496 147.648C147.496 147.648 130.376 123.408 130.168 118.344C129.96 113.28 137.76 94.504 137.76 94.504C137.76 94.504 137.552 88.176 136.704 85.008C136.109 82.9759 134.962 81.1484 133.392 79.728Z" fill="white"/>
</svg>
